<?xml version="1.0" standalone="no"?>
<!DOCTYPE svg PUBLIC "-//W3C//DTD SVG 20010904//EN"
 "http://www.w3.org/TR/2001/REC-SVG-20010904/DTD/svg10.dtd">
<svg version="1.0" xmlns="http://www.w3.org/2000/svg"
 width="2000.000000pt" height="2000.000000pt" viewBox="0 0 2000.000000 2000.000000"
 preserveAspectRatio="xMidYMid meet">

<g transform="translate(0.000000,2000.000000) scale(0.100000,-0.100000)"
fill="#000000" stroke="none">
<path d="M0 10000 l0 -10000 10000 0 10000 0 0 10000 0 10000 -10000 0 -10000
0 0 -10000z m14694 9965 c67 -102 165 -533 197 -868 29 -312 -17 -589 -155
-921 -21 -49 -80 -184 -133 -300 -171 -378 -198 -454 -279 -806 -149 -650
-302 -1061 -542 -1460 -83 -139 -98 -160 -191 -275 -226 -279 -573 -636 -871
-895 -357 -311 -779 -691 -940 -846 l-94 -92 26 -33 c35 -46 67 -79 76 -79 4
1 72 53 152 116 391 311 695 472 1365 722 247 92 363 126 380 112 32 -26 7
-285 -46 -495 -34 -134 -166 -520 -208 -610 -159 -339 -536 -664 -921 -795
-175 -59 -382 -81 -584 -62 -175 17 -171 27 -121 -257 16 -91 16 -99 -4 -205
-23 -126 -59 -338 -74 -438 -9 -57 -7 -89 12 -205 31 -189 104 -473 211 -823
87 -283 202 -676 214 -732 5 -21 -4 -41 -38 -92 -70 -104 -208 -276 -243 -303
-19 -14 -71 -34 -128 -48 -96 -24 -211 -78 -266 -125 l-29 -25 11 -390 c16
-592 17 -1396 1 -1540 -38 -348 -153 -821 -322 -1317 -44 -130 -80 -250 -80
-265 0 -15 16 -84 35 -152 82 -293 126 -678 105 -929 -11 -143 -35 -199 -109
-261 -29 -25 -84 -82 -122 -127 -52 -62 -82 -89 -123 -109 -62 -30 -100 -34
-201 -17 -38 6 -263 27 -500 47 -631 52 -1005 88 -1625 156 -1339 145 -2290
308 -2739 468 -260 93 -364 188 -485 442 -97 204 -142 373 -196 732 l-31 209
24 31 c27 35 610 724 1048 1239 554 650 821 891 1364 1230 110 69 241 153 290
188 188 132 471 356 499 396 8 11 28 91 46 179 58 290 74 349 335 1220 163
545 178 602 196 775 15 149 7 408 -15 475 -31 93 -136 290 -224 420 -104 155
-118 165 -237 165 -103 0 -246 22 -360 55 -297 86 -561 301 -755 614 -127 205
-268 526 -332 758 -32 113 -33 125 -32 293 1 250 24 355 87 394 24 16 103 -14
332 -125 205 -99 387 -186 475 -226 279 -130 569 -272 634 -311 43 -26 110
-75 150 -108 79 -69 261 -253 292 -298 16 -22 25 -27 42 -22 52 17 8 98 -153
284 -111 129 -273 279 -420 389 -55 41 -347 241 -650 443 -687 459 -801 544
-1180 876 -277 243 -426 401 -567 605 -160 230 -267 450 -360 738 -33 102 -82
255 -110 339 -27 85 -81 229 -119 320 -275 652 -311 822 -289 1346 21 506 50
746 110 922 26 75 42 98 92 134 51 37 72 38 95 3 17 -25 18 -78 24 -683 5
-551 9 -669 23 -745 43 -233 139 -512 190 -554 10 -9 29 -11 52 -8 56 9 214
90 267 137 91 80 110 147 152 520 64 569 118 891 161 957 24 37 59 56 82 44
31 -17 33 -35 17 -166 -36 -292 -38 -595 -4 -729 13 -53 48 -86 89 -86 55 0
120 64 360 355 281 340 531 616 584 644 23 13 28 12 46 -4 26 -24 25 -59 -2
-104 -12 -20 -131 -191 -263 -381 -292 -419 -550 -792 -717 -1040 -95 -141
-132 -206 -156 -272 -58 -161 -62 -188 -62 -425 0 -209 1 -224 30 -343 77
-316 110 -354 124 -141 8 137 50 430 87 613 44 222 141 492 209 588 43 60 120
28 120 -50 0 -22 -27 -151 -60 -287 -131 -547 -175 -938 -152 -1348 11 -179
13 -192 41 -249 82 -165 321 -428 495 -545 299 -201 865 -478 1468 -716 102
-41 228 -91 280 -113 146 -62 138 -62 138 -5 0 26 -11 156 -25 288 -63 615
-81 1079 -51 1329 31 271 129 627 189 694 23 25 54 28 83 8 18 -14 19 -33 20
-678 0 -657 4 -773 39 -1108 38 -355 138 -842 229 -1109 32 -91 90 -196 119
-216 13 -8 56 -19 96 -25 106 -15 118 -19 196 -59 50 -26 103 -68 186 -148
131 -125 146 -133 275 -133 138 0 212 30 349 144 152 127 228 145 434 105 66
-12 122 -21 125 -18 4 4 319 744 486 1144 184 439 199 495 207 776 7 239 -2
321 -68 624 -60 278 -63 319 -25 352 35 30 57 29 88 -4 36 -40 50 -70 101
-229 154 -480 162 -770 41 -1495 -48 -289 -52 -329 -30 -329 18 0 179 115 302
216 173 142 638 657 714 789 98 173 137 514 90 792 -23 136 -69 314 -175 683
-77 266 -124 474 -111 487 20 21 108 -88 216 -268 130 -215 207 -406 274 -671
23 -92 45 -171 49 -175 26 -25 45 51 106 417 122 727 124 808 30 1240 -102
464 -250 819 -549 1317 -117 195 -162 297 -158 356 2 34 7 43 25 45 24 4 52
-30 417 -488 481 -604 529 -676 656 -997 28 -73 61 -144 72 -158 37 -47 94
-69 183 -69 132 -1 233 59 292 171 61 115 133 387 154 583 15 140 5 714 -15
870 -25 191 -20 260 20 260 6 0 19 -11 28 -25z m-13123 -14029 c218 -59 568
-212 859 -374 322 -179 664 -460 802 -660 17 -24 46 -78 66 -120 31 -66 36
-88 36 -152 1 -122 -46 -192 -209 -310 -164 -120 -344 -172 -795 -229 -425
-54 -749 -76 -1150 -80 -185 -1 -217 -4 -227 -18 -32 -42 -86 -252 -183 -703
-31 -145 -57 -244 -68 -259 -36 -48 -69 -65 -127 -65 -48 0 -59 4 -85 29 -84
85 -80 339 11 706 88 361 196 610 431 1002 134 223 159 261 273 402 210 262
286 335 414 398 l84 42 -29 11 c-40 16 -285 70 -427 93 -135 23 -170 42 -188
100 -12 40 -3 68 43 133 67 95 244 116 469 54z m16254 -795 c19 -11 52 -25 73
-30 21 -6 48 -21 59 -33 11 -13 55 -91 98 -175 119 -233 306 -463 420 -517
135 -64 252 36 310 266 33 128 36 138 45 138 14 0 100 -166 100 -194 0 -43
-48 -178 -85 -241 -76 -127 -169 -189 -284 -189 -36 0 -84 5 -106 12 -58 17
-156 79 -220 140 -30 28 -59 52 -63 52 -5 0 -12 -51 -15 -112 -11 -195 -74
-423 -147 -537 -102 -157 -288 -130 -412 61 -28 43 -52 77 -53 76 -1 -2 -10
-50 -20 -108 -47 -289 -154 -491 -291 -551 -55 -25 -140 -27 -202 -5 -98 35
-215 148 -330 321 -71 107 -96 125 -106 78 -24 -110 -33 -531 -16 -673 30
-243 28 -251 -68 -258 -58 -4 -62 -3 -89 26 -15 17 -68 98 -117 179 -158 262
-238 361 -272 333 -7 -7 -24 -42 -36 -79 -23 -65 -23 -75 -23 -538 -1 -505 -1
-509 -52 -532 -68 -31 -123 3 -198 123 -40 65 -134 261 -211 439 -15 37 -32
67 -36 67 -3 0 -12 -26 -18 -57 -90 -446 -267 -808 -433 -883 -111 -51 -267 7
-343 125 -39 61 -80 197 -120 395 -28 143 -37 170 -57 170 -14 0 -212 -147
-240 -177 -17 -20 -16 -21 26 -54 97 -74 136 -154 144 -295 13 -228 -102 -456
-273 -540 -50 -25 -71 -29 -139 -29 -94 1 -141 21 -210 90 -81 80 -121 194
-146 414 -7 61 -15 111 -19 111 -4 0 -31 -41 -61 -92 -219 -373 -445 -535
-624 -448 -94 45 -131 131 -145 329 -18 241 -40 325 -83 308 -26 -10 -91 -100
-162 -224 -90 -156 -296 -506 -332 -563 -26 -42 -31 -45 -77 -48 -115 -7 -122
19 -105 351 7 136 9 250 6 254 -4 3 -29 -15 -57 -41 -131 -122 -337 -163 -489
-95 -24 11 -48 16 -52 12 -4 -5 -12 -49 -17 -100 -14 -118 -45 -185 -130 -275
-151 -160 -388 -264 -522 -228 -111 29 -160 111 -169 282 l-6 108 -73 -85
c-87 -101 -203 -202 -292 -255 -90 -53 -167 -74 -252 -68 -126 9 -208 84 -253
232 -39 129 -96 167 -164 110 -33 -27 -43 -54 -81 -226 -18 -82 -26 -101 -51
-123 -35 -28 -80 -33 -103 -9 -20 20 -20 83 -1 148 55 181 90 481 77 667 -3
49 0 74 12 98 35 67 103 64 133 -7 18 -42 22 -193 9 -331 l-8 -84 38 6 c134
22 287 166 377 357 52 109 80 140 126 140 20 0 51 -9 69 -20 27 -16 32 -26 32
-56 0 -29 -7 -43 -39 -73 -22 -20 -65 -76 -97 -126 -89 -139 -138 -191 -243
-262 -2 -1 1 -9 7 -16 7 -8 32 -61 57 -118 58 -136 92 -169 170 -169 136 0
288 110 490 355 115 139 154 197 215 322 68 137 162 237 253 272 106 39 218
21 290 -47 16 -15 48 -66 72 -113 74 -146 174 -211 325 -213 66 -1 84 3 140
31 41 20 88 56 129 97 l65 65 0 83 c1 70 5 88 24 115 47 66 115 51 145 -32 15
-43 17 -74 12 -225 -3 -96 -8 -224 -11 -284 -6 -90 -4 -108 7 -104 21 7 97
125 187 290 102 186 166 280 250 370 68 72 142 118 192 118 29 0 65 -22 80
-50 13 -24 27 -160 40 -385 6 -99 14 -198 20 -220 11 -47 59 -95 95 -95 94 0
237 127 372 330 87 131 165 269 166 292 0 13 -4 109 -8 215 -7 172 -6 195 9
218 42 65 101 51 138 -32 17 -38 21 -80 29 -255 13 -309 53 -602 97 -700 64
-144 172 -162 277 -46 85 94 116 247 75 367 -37 109 -99 181 -158 181 -11 0
-50 -22 -87 -50 -37 -27 -74 -50 -82 -50 -23 0 -63 47 -63 76 0 35 37 100 69
121 14 9 82 48 151 86 145 80 240 149 327 237 77 78 87 106 79 219 -7 79 -5
89 14 114 31 40 82 37 124 -5 31 -32 33 -38 45 -158 23 -221 86 -538 126 -634
41 -97 99 -156 155 -156 60 0 127 74 202 225 114 227 227 664 205 792 -8 43
-7 57 9 84 26 42 87 78 111 63 28 -17 74 -111 168 -343 101 -250 131 -314 148
-308 9 3 14 88 18 323 5 221 11 344 22 399 44 233 131 331 251 281 58 -24 106
-77 203 -223 52 -78 98 -145 103 -148 13 -8 19 32 25 190 12 287 54 545 105
644 25 51 45 64 87 63 65 -3 67 -4 205 -257 110 -201 213 -305 312 -313 66 -5
108 22 154 98 91 152 144 494 126 805 -20 338 -5 537 48 644 19 37 34 51 83
76 50 25 64 38 85 79 14 27 34 53 45 57 32 14 123 2 160 -20z m-14150 -1278
c101 -35 179 -105 222 -201 23 -48 25 -65 22 -146 -8 -213 -6 -226 28 -299 40
-85 115 -165 196 -208 61 -34 64 -34 187 -33 123 0 128 1 265 48 222 77 370
75 476 -7 90 -69 111 -165 60 -274 -45 -95 -113 -143 -338 -239 -188 -81 -253
-136 -253 -216 0 -53 46 -103 113 -123 101 -30 224 -14 432 57 213 72 589 219
635 249 128 80 297 139 402 139 49 0 61 -4 98 -35 25 -20 53 -35 68 -35 53 0
69 -28 76 -131 l5 -73 -60 -89 c-127 -184 -187 -390 -145 -492 22 -52 55 -68
130 -63 51 3 84 14 170 56 58 28 113 49 121 46 82 -32 -162 -221 -309 -239
-184 -23 -306 132 -267 339 6 33 10 61 8 62 -1 2 -61 -26 -132 -62 -137 -68
-288 -114 -373 -114 -64 0 -123 31 -150 79 -49 87 -37 176 39 296 21 34 39 65
39 68 0 3 -59 -21 -132 -54 -300 -137 -549 -192 -710 -158 -166 35 -267 137
-268 271 0 85 30 156 93 215 67 64 116 92 273 156 191 79 235 112 250 183 4
24 0 37 -19 60 -25 29 -26 29 -129 28 -89 -1 -120 -6 -228 -38 -186 -57 -196
-58 -315 -53 -82 3 -125 10 -170 27 -75 28 -171 96 -223 156 -27 32 -45 45
-56 41 -8 -3 -29 -32 -45 -64 -69 -135 -177 -233 -332 -300 -158 -68 -434
-121 -559 -108 -276 31 -388 196 -320 470 61 242 236 457 548 673 204 141 417
191 577 135z m4002 -1885 c13 -12 23 -32 23 -44 0 -12 -27 -62 -61 -111 -110
-160 -132 -197 -156 -263 -40 -115 -25 -200 36 -200 44 0 158 62 237 129 83
70 146 150 205 261 58 109 93 150 128 150 62 0 64 -31 15 -206 -31 -110 -36
-145 -37 -239 -2 -115 12 -165 48 -179 66 -25 193 28 300 124 36 33 72 60 80
60 28 0 15 -47 -30 -108 -149 -204 -409 -268 -487 -120 -19 37 -23 61 -26 174
l-4 132 -81 -85 c-147 -153 -293 -243 -393 -243 -48 0 -54 3 -89 41 -20 23
-43 56 -51 75 -39 92 0 232 117 426 45 73 92 154 105 180 15 30 33 50 51 56
40 15 44 14 70 -10z"/>
<path d="M1787 5502 c61 -51 73 -121 35 -197 -8 -16 -88 -102 -177 -190 -90
-88 -181 -187 -204 -220 -181 -264 -331 -516 -331 -559 0 -15 34 -16 443 -15
670 3 844 17 1134 89 169 42 276 88 344 149 96 84 87 139 -41 269 -108 108
-207 187 -385 305 -163 107 -455 257 -645 330 -197 76 -224 82 -173 39z"/>
<path d="M17627 4880 c-40 -47 -67 -131 -67 -211 0 -135 73 -502 126 -637 59
-147 140 -212 215 -172 100 54 130 482 53 748 -54 187 -157 312 -256 312 -30
0 -42 -7 -71 -40z"/>
<path d="M11048 1989 c-39 -20 -102 -96 -136 -164 -91 -182 -157 -470 -122
-536 15 -27 65 -50 111 -51 62 -1 163 54 240 131 111 112 145 215 130 399 -9
101 -7 96 -80 180 -61 69 -80 75 -143 41z"/>
<path d="M3438 3659 c-109 -25 -252 -121 -393 -263 -185 -186 -309 -399 -284
-489 12 -46 75 -101 135 -117 37 -11 62 -10 149 3 130 21 205 46 297 100 122
71 177 135 257 298 80 160 90 202 67 279 -9 30 -16 71 -16 91 0 84 -92 127
-212 98z"/>
<path d="M6055 2484 c-75 -19 -196 -94 -330 -205 -190 -159 -258 -306 -163
-355 26 -13 35 -13 90 1 188 48 458 244 523 381 28 59 32 135 8 156 -20 18
-93 30 -128 22z"/>
</g>
</svg>
